<svg width="273" height="172" viewBox="0 0 273 172" fill="none" xmlns="http://www.w3.org/2000/svg">
<path d="M94.4864 161.415C64.8826 160.251 32.5914 151.147 17.6693 123.823C9.21102 108.541 7.78245 89.6381 13.8079 73.3057H9.4939C2.09649 91.4986 -3.16516 110.856 4.89704 129.915C11.8701 146.887 27.8531 158.532 44.4018 164.583C76.1697 175.845 111.672 172.053 143.199 162.566C147.994 160.961 152.845 159.527 157.485 157.524V153.604C156.155 153.803 154.854 154.087 153.581 154.556C134.288 159.271 114.147 162.083 94.4864 161.415Z" fill="black"/>
<path d="M182.208 39.9876L198.559 101.468H225.419L241.77 39.9876L239.181 101.468H266.479V0.193359H227.866L211.996 59.9415L196.112 0.193359H157.498V101.468H184.797L182.208 39.9876Z" fill="black"/>
<path d="M152.902 101.468V0.193359H125.603V101.468H152.902Z" fill="black"/>
<path d="M63.3837 83.233H93.2138V101.483H120.512V0.207573H93.2138L43.6384 72.2974L36.0995 83.233L23.5536 101.483H50.8378L63.3837 83.233ZM93.2138 39.874V63.3785H77.047L93.2138 39.874Z" fill="black"/>
<path d="M269.125 119.874C268.941 119.874 262.93 118.184 261.657 118.241C260.37 118.298 257.343 118.951 256.31 119.335C250.186 121.763 244.047 124.206 237.909 126.649C237.838 126.507 232.294 118.965 231.756 118.227C231.728 118.184 231.685 118.17 231.643 118.17H226.608C226.48 118.17 226.41 118.312 226.48 118.412L228.56 121.138C228.56 121.138 228.56 121.153 228.56 121.167L227.753 130.128C227.753 130.128 227.753 130.128 227.753 130.142C227.711 130.327 227.683 130.526 227.64 130.711C226.834 130.98 199.224 141.959 199.083 141.959C199.083 142.015 196.806 142.072 196.424 141.959C196.113 141.959 195.49 141.873 195.49 141.831C195.179 141.788 194.811 141.646 194.557 141.561C194.09 141.405 189.621 139.573 189.621 139.53C189.536 139.53 186.82 138.209 186.82 138.167C186.721 138.167 184.288 136.988 184.288 136.945C184.019 136.86 175.208 132.656 175.208 132.614C174.84 132.472 171.077 133.693 170.681 133.835V134.105C170.894 134.289 172.138 135.553 172.548 135.994C172.633 135.994 174.416 137.712 175.208 138.579C175.307 138.579 176.806 140.027 177.485 140.751C177.57 140.751 179.437 142.555 180.285 143.45C180.37 143.45 182.152 145.168 182.944 146.035C183.043 146.035 186.141 149.187 186.551 149.415L170.837 160.563C170.314 160.833 169.904 161.032 169.748 161.06V161.33H169.776C170.116 161.288 170.681 161.131 171.304 160.933C171.332 160.933 171.346 160.918 171.374 160.904L177.754 159.228L190.653 153.647C194.91 153.675 199.338 153.121 202.916 152.497C202.916 152.497 202.916 152.497 202.93 152.497L181.021 166.528C180.894 166.613 180.738 166.656 180.582 166.642L175.462 166.258C175.349 166.258 175.25 166.372 175.292 166.486L176.396 169.44C176.396 169.44 176.424 169.482 176.452 169.482C177.442 169.425 180.766 168.531 181.049 168.403H181.077L181.148 168.36C181.756 168.119 187.258 165.548 187.343 165.548C187.343 165.506 192.86 162.708 192.959 162.708C193.001 162.608 193.524 162.339 193.751 162.296C193.793 162.211 197.357 160.35 197.626 160.265C197.626 160.222 198.772 159.626 198.956 159.583C198.998 159.498 201.671 158.092 201.756 158.092C201.756 158.05 204.698 156.516 204.698 156.473C204.868 156.416 205.49 156.104 205.49 156.061C205.575 156.061 207.357 155.152 207.357 155.11C207.414 155.11 210.016 153.775 212.166 152.667L214.048 151.673L214.472 151.446C214.726 151.318 214.882 151.233 214.939 151.19H214.967L236.721 141.604C236.876 141.518 237.244 141.334 237.244 141.291C237.371 141.291 238.036 141.064 238.036 141.021C238.178 141.021 240.709 140.112 240.709 140.07C241.105 139.97 244.896 138.593 244.995 138.593C244.995 138.55 256.947 134.503 262.449 131.932C262.491 131.847 266.226 129.631 266.325 129.631C266.367 129.546 269.917 126.833 270.059 126.777C270.412 126.379 271.572 125.2 271.784 125.016C271.784 124.93 272.237 124.391 272.322 124.348C272.689 123.823 273.382 122.331 272.718 121.635C272.138 120.599 270.341 120.286 269.125 119.874Z" fill="black"/>
</svg>
