<svg width="329" height="120" viewBox="0 0 329 120" fill="none" xmlns="http://www.w3.org/2000/svg">
<path d="M66.1117 111.852C45.6625 111.052 23.357 104.794 13.0494 86.0111C7.20677 75.5067 6.21997 62.5129 10.3821 51.2861H7.40218C2.29233 63.7918 -1.34221 77.098 4.22684 90.1992C9.04358 101.865 20.084 109.871 31.5152 114.029C53.4592 121.771 77.9825 119.164 99.7604 112.643C103.073 111.54 106.424 110.554 109.628 109.177V106.483C108.71 106.62 107.811 106.815 106.932 107.137C93.6052 110.378 79.6923 112.311 66.1117 111.852Z" fill="black"/>
<path d="M126.706 28.3834L138.001 70.645H156.555L167.849 28.3834L166.061 70.645H184.918V1.02903H158.245L147.283 42.0996L136.311 1.02903H109.638V70.645H128.494L126.706 28.3834Z" fill="black"/>
<path d="M106.463 70.645V1.02903H87.606V70.645H106.463Z" fill="black"/>
<path d="M44.6271 58.1101H65.2326V70.6548H84.0892V1.0388H65.2326L30.9878 50.593L25.7803 58.1101L17.1141 70.6548H35.9609L44.6271 58.1101ZM65.2326 28.3053V44.4622H54.0652L65.2326 28.3053Z" fill="black"/>
<path d="M208.454 13.193L209.998 17.4299H213.144L206.999 1.02903H203.149L197.004 17.4299H199.954L201.527 13.193H208.454ZM205.005 3.72346L207.585 10.8012H202.406L205.005 3.72346Z" fill="black"/>
<path d="M218.703 17.4299L223.364 5.64667H220.433L217.267 14.2669L214.131 5.64667H211.083L215.743 17.4299H218.703Z" fill="black"/>
<path d="M227.096 5.64667H224.185V17.4299H227.096V5.64667Z" fill="black"/>
<path d="M225.64 3.97729C226.715 3.97729 227.536 3.15724 227.536 2.08337C227.536 1.0095 226.715 0.208984 225.64 0.208984C224.566 0.208984 223.765 1.02903 223.765 2.08337C223.765 3.13772 224.585 3.97729 225.64 3.97729Z" fill="black"/>
<path d="M233.613 10.5377C230.115 10.9379 228.22 12.1777 228.22 14.3841C228.22 16.4244 229.812 17.6838 232.04 17.6838C233.798 17.6838 235.303 16.7954 235.928 15.4384C235.928 16.3756 235.997 16.9125 236.114 17.4299H238.947C238.781 16.5611 238.664 15.2041 238.664 13.935V10.0202C238.664 7.20866 236.622 5.28546 233.72 5.28546C230.819 5.28546 228.698 7.11104 228.562 9.71761L231.375 9.78595C231.493 8.39968 232.382 7.62845 233.623 7.62845C234.981 7.62845 235.782 8.51683 235.782 9.95191V10.3034L233.603 10.5377H233.613ZM235.84 12.0704V12.6561C235.84 14.4329 234.57 15.6825 232.958 15.6825C231.923 15.6825 231.131 15.1651 231.131 14.14C231.131 12.988 232.118 12.5194 233.828 12.3144L235.84 12.0801V12.0704Z" fill="black"/>
<path d="M241.488 13.4957C241.488 17.3421 244.321 18.0645 246.901 17.3421L246.881 14.9015C245.64 15.2724 244.4 15.1358 244.4 13.2614V8.05799H247.233V5.64667H244.4V2.66912H241.488V5.64667H239.358V8.05799H241.488V13.4957Z" fill="black"/>
<path d="M249.812 3.97729C250.887 3.97729 251.707 3.15724 251.707 2.08337C251.707 1.0095 250.887 0.208984 249.812 0.208984C248.737 0.208984 247.936 1.02903 247.936 2.08337C247.936 3.13772 248.757 3.97729 249.812 3.97729Z" fill="black"/>
<path d="M251.278 5.64667H248.366V17.4299H251.278V5.64667Z" fill="black"/>
<path d="M258.634 17.7814C262.201 17.7814 264.78 15.1846 264.78 11.5237C264.78 7.86273 262.201 5.29521 258.634 5.29521C255.068 5.29521 252.469 7.89202 252.469 11.5237C252.469 15.1553 255.049 17.7814 258.634 17.7814ZM258.634 7.75535C260.53 7.75535 261.849 9.3271 261.849 11.5334C261.849 13.7397 260.54 15.331 258.634 15.331C256.729 15.331 255.4 13.7593 255.4 11.5334C255.4 9.30758 256.71 7.75535 258.634 7.75535Z" fill="black"/>
<path d="M268.884 11.1332C268.884 8.95612 269.822 7.71629 271.483 7.71629C273.026 7.71629 273.896 8.79016 273.896 10.6255V17.4397H276.807V10.1764C276.807 7.26722 275.098 5.37331 272.538 5.37331C270.642 5.37331 269.323 6.42765 268.806 8.16537L268.874 5.65642H265.962V17.4397H268.874V11.1332H268.884Z" fill="black"/>
<path d="M201.019 22.5064H197.991V38.9073H201.019V22.5064Z" fill="black"/>
<path d="M213.711 38.9073V31.644C213.711 28.7348 212.001 26.8409 209.441 26.8409C207.546 26.8409 206.227 27.8953 205.709 29.633L205.778 27.124H202.866V38.9073H205.778V32.6008C205.778 30.4237 206.716 29.1839 208.377 29.1839C209.92 29.1839 210.79 30.2578 210.79 32.0931V38.9073H213.711Z" fill="black"/>
<path d="M225.171 35.4905C225.171 33.5184 223.696 32.3079 221.087 31.9076L219.26 31.5757C218.391 31.4098 217.854 30.99 217.854 30.2871C217.854 29.3304 218.743 28.7446 219.847 28.7446C221.205 28.7446 222.192 29.633 222.26 30.9021L224.888 30.785C224.751 28.3248 222.709 26.7043 219.896 26.7043C217.082 26.7043 215.069 28.2077 215.069 30.5897C215.069 32.3665 216.222 33.7039 218.655 34.0847L220.511 34.4166C221.732 34.6314 222.338 35.0219 222.338 35.8029C222.338 36.7596 221.351 37.3063 220.159 37.3063C218.704 37.3063 217.629 36.4667 217.512 35.1488L214.815 35.2464C215.001 37.7553 217.111 39.3466 220.159 39.3466C223.208 39.3466 225.181 37.8432 225.181 35.5002L225.171 35.4905Z" fill="black"/>
<path d="M233.242 38.8195L233.222 36.3788C231.981 36.7498 230.741 36.6131 230.741 34.7388V29.5354H233.574V27.124H230.741V24.1465H227.829V27.124H225.699V29.5354H227.829V34.9731C227.829 38.8195 230.662 39.5419 233.242 38.8195Z" fill="black"/>
<path d="M236.143 21.6864C235.088 21.6864 234.268 22.5064 234.268 23.5608C234.268 24.6151 235.088 25.4547 236.143 25.4547C237.199 25.4547 238.039 24.6346 238.039 23.5608C238.039 22.4869 237.218 21.6864 236.143 21.6864Z" fill="black"/>
<path d="M237.609 27.124H234.697V38.9073H237.609V27.124Z" fill="black"/>
<path d="M246.109 36.3788C244.868 36.7498 243.628 36.6131 243.628 34.7388V29.5354H246.461V27.124H243.628V24.1465H240.716V27.124H238.586V29.5354H240.716V34.9731C240.716 38.8195 243.549 39.5419 246.129 38.8195L246.109 36.3788Z" fill="black"/>
<path d="M251.62 39.1904C253.31 39.1904 254.551 38.4192 255.205 37.1013L255.156 38.9073H258.068V27.124H255.156V34.0163C254.99 35.8224 254.101 36.8474 252.626 36.8474C251.151 36.8474 250.33 35.7736 250.33 33.9382V27.1143H247.418V34.5142C247.418 37.3258 249.109 39.1807 251.62 39.1807V39.1904Z" fill="black"/>
<path d="M266.939 29.5354V27.124H264.106V24.1465H261.194V27.124H259.065V29.5354H261.194V34.9731C261.194 38.8195 264.028 39.5419 266.607 38.8195L266.588 36.3788C265.347 36.7498 264.106 36.6131 264.106 34.7388V29.5354H266.939Z" fill="black"/>
<path d="M276.456 35.0707C276.055 36.2617 274.883 37.0622 273.476 37.0622C271.698 37.0622 270.408 35.7248 270.31 33.8992H279.152C279.67 30.2187 277.491 26.7043 273.407 26.7043C269.91 26.7043 267.379 29.3499 267.379 33.0108C267.379 36.6717 269.91 39.3369 273.456 39.3369C276.319 39.3369 278.478 37.6284 278.947 35.4514L276.466 35.0804L276.456 35.0707ZM273.407 28.8813C275.147 28.8813 276.339 30.1504 276.339 31.7124H270.34C270.555 30.0235 271.795 28.8813 273.407 28.8813Z" fill="black"/>
<path d="M295.986 33.001C295.986 29.3694 293.407 26.7726 289.841 26.7726C286.275 26.7726 283.676 29.3694 283.676 33.001C283.676 36.6327 286.255 39.2588 289.841 39.2588C293.426 39.2588 295.986 36.6619 295.986 33.001ZM289.841 36.7986C287.916 36.7986 286.607 35.2269 286.607 33.001C286.607 30.7752 287.916 29.223 289.841 29.223C291.765 29.223 293.055 30.7947 293.055 33.001C293.055 35.2073 291.746 36.7986 289.841 36.7986Z" fill="black"/>
<path d="M303.861 27.124H301.282V26.2357C301.282 24.5272 302.523 24.2636 303.646 24.6151V22.2916C301.116 21.823 298.37 22.9457 298.37 26.2259V27.1143H296.24V29.5256H298.37V38.8975H301.282V29.5256H303.861V27.1143V27.124Z" fill="black"/>
<path d="M206.647 57.2217L202.426 43.9838H197.883V60.3847H200.834L200.648 47.4006L205.054 60.3847H208.2L212.607 47.4006L212.421 60.3847H215.391V43.9838H210.868L206.647 57.2217Z" fill="black"/>
<path d="M227.145 52.9848C227.145 50.1732 225.103 48.25 222.201 48.25C219.299 48.25 217.179 50.0756 217.042 52.6821L219.856 52.7505C219.974 51.3642 220.863 50.593 222.103 50.593C223.462 50.593 224.263 51.4813 224.263 52.9164V53.2679L222.084 53.5022C218.586 53.9024 216.691 55.1423 216.691 57.3486C216.691 59.3889 218.283 60.6483 220.511 60.6483C222.27 60.6483 223.774 59.7599 224.4 58.4029C224.4 59.3401 224.468 59.877 224.585 60.3945H227.419C227.252 59.5256 227.135 58.1686 227.135 56.8995V52.9848H227.145ZM224.302 55.6109C224.302 57.3876 223.032 58.6372 221.42 58.6372C220.384 58.6372 219.593 58.1198 219.593 57.0948C219.593 55.9428 220.579 55.4742 222.289 55.2692L224.302 55.0349V55.6206V55.6109Z" fill="black"/>
<path d="M230.115 43.1637C229.06 43.1637 228.239 43.9838 228.239 45.0381C228.239 46.0925 229.06 46.9321 230.115 46.9321C231.17 46.9321 232.011 46.112 232.011 45.0381C232.011 43.9643 231.19 43.1637 230.115 43.1637Z" fill="black"/>
<path d="M231.581 48.6014H228.669V60.3847H231.581V48.6014Z" fill="black"/>
<path d="M239.729 48.3183C237.834 48.3183 236.515 49.3727 235.997 51.1104L236.065 48.6014H233.154V60.3847H236.065V54.0782C236.065 51.9011 237.003 50.6613 238.664 50.6613C240.208 50.6613 241.078 51.7352 241.078 53.5705V60.3847H243.989V53.1214C243.989 50.2122 242.279 48.3183 239.72 48.3183H239.729Z" fill="black"/>
<path d="M249.724 45.6239H246.813V48.6014H244.683V51.0127H246.813V56.4504C246.813 60.2968 249.646 61.0192 252.225 60.2968L252.206 57.8562C250.965 58.2272 249.724 58.0905 249.724 56.2161V51.0127H252.558V48.6014H249.724V45.6239Z" fill="black"/>
<path d="M259.035 48.1816C255.537 48.1816 253.007 50.8273 253.007 54.4882C253.007 58.1491 255.537 60.8142 259.084 60.8142C261.947 60.8142 264.106 59.1058 264.575 56.9288L262.093 56.5578C261.693 57.7488 260.52 58.5494 259.113 58.5494C257.335 58.5494 256.045 57.2119 255.948 55.3863H264.79C265.307 51.7059 263.129 48.1914 259.045 48.1914L259.035 48.1816ZM255.957 53.1898C256.172 51.5009 257.413 50.3587 259.025 50.3587C260.764 50.3587 261.956 51.6278 261.956 53.1898H255.957Z" fill="black"/>
<path d="M272.606 48.3183C270.711 48.3183 269.392 49.3727 268.874 51.1104L268.942 48.6014H266.031V60.3847H268.942V54.0782C268.942 51.9011 269.88 50.6613 271.541 50.6613C273.085 50.6613 273.955 51.7352 273.955 53.5705V60.3847H276.866V53.1214C276.866 50.2122 275.156 48.3183 272.596 48.3183H272.606Z" fill="black"/>
<path d="M288.385 52.9848C288.385 50.1732 286.343 48.25 283.441 48.25C280.54 48.25 278.419 50.0756 278.283 52.6821L281.096 52.7505C281.214 51.3642 282.103 50.593 283.344 50.593C284.702 50.593 285.503 51.4813 285.503 52.9164V53.2679L283.324 53.5022C279.826 53.9024 277.931 55.1423 277.931 57.3486C277.931 59.3889 279.523 60.6483 281.751 60.6483C283.51 60.6483 285.014 59.7599 285.64 58.4029C285.64 59.3401 285.708 59.877 285.825 60.3945H288.659C288.493 59.5256 288.375 58.1686 288.375 56.8995V52.9848H288.385ZM285.552 55.6109C285.552 57.3876 284.282 58.6372 282.669 58.6372C281.634 58.6372 280.842 58.1198 280.842 57.0948C280.842 55.9428 281.829 55.4742 283.539 55.2692L285.552 55.0349V55.6206V55.6109Z" fill="black"/>
<path d="M296.475 48.3183C294.58 48.3183 293.261 49.3727 292.743 51.1104L292.811 48.6014H289.9V60.3847H292.811V54.0782C292.811 51.9011 293.749 50.6613 295.41 50.6613C296.954 50.6613 297.823 51.7352 297.823 53.5705V60.3847H300.735V53.1214C300.735 50.2122 299.025 48.3183 296.465 48.3183H296.475Z" fill="black"/>
<path d="M308.043 58.1589C306.304 58.1589 304.809 56.8019 304.809 54.4784C304.809 52.3502 306.147 50.798 308.043 50.798C309.586 50.798 310.808 51.8523 310.974 53.3264L313.836 53.0921C313.67 50.2122 311.189 48.2402 308.043 48.2402C304.506 48.2402 301.897 50.8858 301.897 54.4686C301.897 58.0515 304.477 60.7264 308.043 60.7264C311.228 60.7264 313.719 58.686 313.856 55.689L310.974 55.4742C310.808 57.1143 309.518 58.1491 308.043 58.1491V58.1589Z" fill="black"/>
<path d="M320.627 48.1816C317.129 48.1816 314.598 50.8273 314.598 54.4882C314.598 58.1491 317.129 60.8142 320.676 60.8142C323.538 60.8142 325.697 59.1058 326.166 56.9288L323.685 56.5578C323.284 57.7488 322.112 58.5494 320.705 58.5494C318.927 58.5494 317.637 57.2119 317.539 55.3863H326.381C326.899 51.7059 324.72 48.1914 320.636 48.1914L320.627 48.1816ZM317.559 53.1898C317.774 51.5009 319.015 50.3587 320.627 50.3587C322.366 50.3587 323.558 51.6278 323.558 53.1898H317.559Z" fill="black"/>
<path d="M186.745 83.2972C186.618 83.2972 182.466 82.1354 181.587 82.1745C180.697 82.2135 178.607 82.6626 177.893 82.9262C173.663 84.5956 169.423 86.2747 165.182 87.9538C165.133 87.8562 161.303 82.6724 160.932 82.1647C160.913 82.1354 160.883 82.1257 160.854 82.1257H157.376C157.288 82.1257 157.239 82.2233 157.288 82.2916L158.724 84.166C158.724 84.166 158.724 84.1758 158.724 84.1855L158.167 90.3456C158.167 90.3456 158.167 90.3456 158.167 90.3554C158.138 90.4823 158.118 90.619 158.089 90.7459C157.532 90.9314 138.461 98.4778 138.363 98.4778C138.363 98.5168 136.79 98.5559 136.526 98.4778C136.311 98.4778 135.881 98.4192 135.881 98.3899C135.666 98.3606 135.412 98.263 135.236 98.2044C134.914 98.097 131.827 96.8377 131.827 96.8084C131.768 96.8084 129.892 95.9005 129.892 95.8712C129.824 95.8712 128.143 95.0609 128.143 95.0316C127.958 94.973 121.871 92.0834 121.871 92.0541C121.617 91.9564 119.018 92.796 118.744 92.8936V93.0791C118.891 93.206 119.751 94.0749 120.034 94.3775C120.093 94.3775 121.324 95.5588 121.871 96.1543C121.939 96.1543 122.975 97.1501 123.444 97.6479C123.502 97.6479 124.792 98.8878 125.378 99.5028C125.437 99.5028 126.668 100.684 127.215 101.28C127.283 101.28 129.423 103.447 129.706 103.603L118.852 111.267C118.49 111.452 118.207 111.589 118.099 111.608V111.794H118.119C118.353 111.764 118.744 111.657 119.174 111.52C119.194 111.52 119.203 111.511 119.223 111.501L123.629 110.349L132.54 106.512C135.481 106.532 138.539 106.151 141.011 105.721C141.011 105.721 141.011 105.721 141.02 105.721L125.886 115.367C125.798 115.425 125.691 115.455 125.583 115.445L122.047 115.181C121.968 115.181 121.9 115.259 121.929 115.338L122.691 117.368C122.691 117.368 122.711 117.397 122.73 117.397C123.414 117.358 125.71 116.743 125.906 116.655H125.925L125.974 116.626C126.394 116.46 130.195 114.693 130.254 114.693C130.254 114.664 134.064 112.741 134.132 112.741C134.162 112.672 134.523 112.487 134.68 112.458C134.709 112.399 137.171 111.12 137.357 111.062C137.357 111.032 138.148 110.622 138.275 110.593C138.304 110.534 140.151 109.568 140.209 109.568C140.209 109.539 142.242 108.484 142.242 108.455C142.359 108.416 142.789 108.201 142.789 108.172C142.847 108.172 144.078 107.547 144.078 107.518C144.118 107.518 145.915 106.6 147.4 105.839L148.7 105.155L148.993 104.999C149.169 104.911 149.276 104.853 149.315 104.823H149.335L164.362 98.2337C164.469 98.1751 164.723 98.0482 164.723 98.0189C164.811 98.0189 165.27 97.8627 165.27 97.8334C165.368 97.8334 167.117 97.2086 167.117 97.1794C167.39 97.111 170.009 96.1641 170.077 96.1641C170.077 96.1348 178.333 93.3525 182.134 91.5855C182.163 91.5269 184.742 90.004 184.811 90.004C184.84 89.9454 187.292 88.0808 187.39 88.0417C187.634 87.7684 188.435 86.9581 188.582 86.8312C188.582 86.7726 188.895 86.4016 188.953 86.3723C189.207 86.0111 189.686 84.9861 189.227 84.5077C188.826 83.795 187.585 83.5803 186.745 83.2972Z" fill="black"/>
</svg>
