<svg width="16" height="17" viewBox="0 0 16 17" fill="none" xmlns="http://www.w3.org/2000/svg">
<g id="Utility Map">
<path id="Shape" d="M9.5 7.75C9.5 6.92157 8.82843 6.25 8 6.25C7.17157 6.25 6.5 6.92157 6.5 7.75C6.5 8.57843 7.17157 9.25 8 9.25C8.82843 9.25 9.5 8.57843 9.5 7.75ZM14 7.75C14 10.6239 10.9028 13.7662 9.15886 15.3077C8.4905 15.8985 7.5095 15.8985 6.84114 15.3077C5.09724 13.7662 2 10.6239 2 7.75C2 4.43629 4.68629 1.75 8 1.75C11.3137 1.75 14 4.43629 14 7.75ZM13 7.75C13 4.98858 10.7614 2.75 8 2.75C5.23858 2.75 3 4.98858 3 7.75C3 8.85846 3.61464 10.1454 4.56972 11.4327C5.50366 12.6915 6.65694 13.8102 7.50343 14.5585C7.79356 14.815 8.20644 14.815 8.49657 14.5585C9.34306 13.8102 10.4963 12.6915 11.4303 11.4327C12.3854 10.1454 13 8.85846 13 7.75Z" fill="black"/>
</g>
</svg>
