<svg width="43" height="42" viewBox="0 0 43 42" fill="none" xmlns="http://www.w3.org/2000/svg">
<g id="Utility Icons: Misc">
<path id="Vector" d="M21.4324 31.3989L13.4646 20.1471C12.1604 18.6073 11.3205 16.7286 11.0428 14.7299C10.765 12.7312 11.0608 10.6947 11.8958 8.85757C12.7307 7.02047 14.0703 5.45838 15.7587 4.35323C17.4471 3.24808 19.4147 2.64535 21.4324 2.61523C24.2294 2.64287 26.9013 3.77782 28.8631 5.77151C30.8249 7.7652 31.9167 10.4551 31.8992 13.2521C31.9003 15.6921 31.0696 18.0596 29.5442 19.9639L21.4324 31.3989Z" fill="#001B4D"/>
<path id="Vector_2" d="M15.8482 7.61651C17.3201 6.11279 19.3285 5.25463 21.4325 5.23047C23.5365 5.25463 25.545 6.11279 27.0168 7.61651C28.4886 9.12023 29.3036 11.1466 29.2826 13.2506C29.2733 15.0923 28.6417 16.8767 27.4902 18.314L21.4325 26.8444L15.5319 18.484C14.2821 17.0259 13.5912 15.1711 13.5824 13.2506C13.5615 11.1466 14.3764 9.12023 15.8482 7.61651Z" fill="white"/>
<circle id="Ellipse 653" cx="21.435" cy="13.3764" r="3.63033" fill="#001B4D"/>
</g>
</svg>
