<svg width="16" height="17" viewBox="0 0 16 17" fill="none" xmlns="http://www.w3.org/2000/svg">
<g id="Utility Phone">
<path id="Vector" d="M12.0389 13.5H11.9703C4.0376 13.0437 2.91129 6.34788 2.75385 4.30442C2.74116 4.14554 2.75994 3.98572 2.8091 3.83411C2.85827 3.6825 2.93685 3.54208 3.04036 3.42091C3.14386 3.29973 3.27025 3.20018 3.41228 3.12795C3.55431 3.05573 3.70919 3.01225 3.86805 3H6.09242C6.25413 2.99984 6.41215 3.04826 6.54603 3.13899C6.67991 3.22971 6.78347 3.35856 6.8433 3.50885L7.45692 5.01923C7.516 5.16605 7.53066 5.32699 7.49909 5.48208C7.46751 5.63716 7.39108 5.77954 7.27929 5.89154L6.41942 6.75981C6.55374 7.52338 6.91927 8.22725 7.46657 8.77619C8.01387 9.32514 8.71651 9.69266 9.47945 9.82904L10.3555 8.96077C10.4691 8.85018 10.6128 8.7755 10.7686 8.74606C10.9243 8.71662 11.0854 8.7337 11.2315 8.79519L12.7534 9.405C12.9014 9.46674 13.0276 9.57115 13.1161 9.70492C13.2045 9.8387 13.2511 9.99578 13.25 10.1562V12.2885C13.25 12.6098 13.1224 12.9179 12.8953 13.1451C12.6681 13.3724 12.3601 13.5 12.0389 13.5ZM3.96494 3.80769C3.85787 3.80769 3.75519 3.85024 3.67948 3.92598C3.60377 4.00171 3.56124 4.10443 3.56124 4.21154V4.24385C3.74694 6.63462 4.93785 12.2885 12.0147 12.6923C12.0677 12.6956 12.1209 12.6884 12.1711 12.671C12.2213 12.6537 12.2677 12.6267 12.3074 12.5914C12.3472 12.5561 12.3796 12.5133 12.4028 12.4655C12.426 12.4177 12.4395 12.3658 12.4426 12.3127V10.1562L10.9206 9.54635L9.76203 10.6973L9.56826 10.6731C6.05609 10.2329 5.57973 6.71942 5.57973 6.68308L5.55551 6.48923L6.70201 5.33019L6.09646 3.80769H3.96494Z" fill="black"/>
</g>
</svg>
