<svg width="16" height="17" viewBox="0 0 16 17" fill="none" xmlns="http://www.w3.org/2000/svg">
<g id="printer">
<path id="Vector" d="M14 5.25H12.5V2.25H3.5V5.25H2C1.73478 5.25 1.48043 5.35536 1.29289 5.54289C1.10536 5.73043 1 5.98478 1 6.25V11.25C1 11.5152 1.10536 11.7696 1.29289 11.9571C1.48043 12.1446 1.73478 12.25 2 12.25H3.5V15.25H12.5V12.25H14C14.2652 12.25 14.5196 12.1446 14.7071 11.9571C14.8946 11.7696 15 11.5152 15 11.25V6.25C15 5.98478 14.8946 5.73043 14.7071 5.54289C14.5196 5.35536 14.2652 5.25 14 5.25ZM4.5 3.25H11.5V5.25H4.5V3.25ZM11.5 14.25H4.5V9.25H11.5V14.25ZM14 11.25H12.5V8.25H3.5V11.25H2V6.25H14V11.25Z" fill="black"/>
</g>
</svg>
