<svg width="16" height="17" viewBox="0 0 16 17" fill="none" xmlns="http://www.w3.org/2000/svg">
<g id="video">
<path id="Vector" d="M10.5 13.25H2C1.73478 13.25 1.48043 13.1446 1.29289 12.9571C1.10536 12.7696 1 12.5152 1 12.25V4.25C1 3.98478 1.10536 3.73043 1.29289 3.54289C1.48043 3.35536 1.73478 3.25 2 3.25H10.5C10.7652 3.25 11.0196 3.35536 11.2071 3.54289C11.3946 3.73043 11.5 3.98478 11.5 4.25V6.28L14.21 4.345C14.2846 4.29187 14.3724 4.26025 14.4638 4.25362C14.5552 4.24698 14.6466 4.26557 14.7281 4.30737C14.8096 4.34916 14.8781 4.41254 14.926 4.4906C14.974 4.56866 14.9996 4.65839 15 4.75V11.75C14.9996 11.8416 14.974 11.9313 14.926 12.0094C14.8781 12.0875 14.8096 12.1508 14.7281 12.1926C14.6466 12.2344 14.5552 12.253 14.4638 12.2464C14.3724 12.2397 14.2846 12.2081 14.21 12.155L11.5 10.22V12.25C11.5 12.5152 11.3946 12.7696 11.2071 12.9571C11.0196 13.1446 10.7652 13.25 10.5 13.25ZM2 4.25V12.25H10.5V9.25C10.5004 9.15839 10.526 9.06866 10.574 8.9906C10.6219 8.91254 10.6904 8.84916 10.7719 8.80737C10.8534 8.76557 10.9448 8.74698 11.0362 8.75362C11.1276 8.76025 11.2154 8.79187 11.29 8.845L14 10.78V5.72L11.29 7.655C11.2154 7.70813 11.1276 7.73975 11.0362 7.74638C10.9448 7.75302 10.8534 7.73443 10.7719 7.69263C10.6904 7.65084 10.6219 7.58746 10.574 7.5094C10.526 7.43134 10.5004 7.34161 10.5 7.25V4.25H2Z" fill="black"/>
</g>
</svg>
