<svg width="787" height="309" viewBox="0 0 787 309" fill="none" xmlns="http://www.w3.org/2000/svg">
<path d="M225.146 276.963C131.834 273.3 30.055 244.684 -16.9831 158.793C-43.641 110.76 -48.1471 51.3369 -29.1534 0H-42.7487C-66.0624 57.1859 -82.649 118.036 -57.2363 177.94C-35.2578 231.289 15.1181 267.894 67.285 286.913C167.414 322.316 279.316 310.393 378.694 280.576C393.811 275.53 409.101 271.024 423.723 264.725V252.404C419.531 253.027 415.43 253.921 411.418 255.392C350.605 270.214 287.121 279.052 225.153 276.957L225.146 276.963Z" fill="white"/>
<path d="M774.826 146.415C774.248 146.415 755.305 141.122 751.294 141.295C747.239 141.475 737.696 143.519 734.443 144.723C715.147 152.335 695.799 159.986 676.458 167.643C676.246 167.175 658.785 143.544 657.084 141.244C656.995 141.122 656.86 141.064 656.706 141.064H640.83C640.432 141.064 640.201 141.526 640.445 141.84L646.977 150.368C646.977 150.368 647.01 150.432 647.003 150.471L644.462 178.542C644.462 178.542 644.456 178.574 644.456 178.586C644.321 179.163 644.231 179.791 644.096 180.368C641.555 181.213 554.558 215.615 554.109 215.615C554.109 215.794 546.934 215.967 545.728 215.615C544.746 215.615 542.783 215.346 542.783 215.211C541.801 215.077 540.646 214.635 539.837 214.366C538.368 213.879 524.282 208.137 524.282 208.003C524.013 208.003 515.459 203.864 515.459 203.729C515.144 203.729 507.482 200.038 507.482 199.904C506.635 199.635 478.868 186.461 478.868 186.333C477.707 185.884 465.854 189.716 464.603 190.158V191.004C465.27 191.581 469.197 195.54 470.487 196.924C470.75 196.924 476.372 202.313 478.868 205.023C479.176 205.023 483.906 209.56 486.042 211.835C486.312 211.835 492.19 217.486 494.866 220.292C495.135 220.292 500.75 225.681 503.247 228.391C503.561 228.391 513.322 238.272 514.611 238.983V238.996L465.091 273.942C463.428 274.794 462.145 275.428 461.664 275.518V276.357L461.645 276.37L461.728 276.345C462.806 276.204 464.596 275.723 466.522 275.108C466.592 275.082 466.663 275.063 466.727 275.038L486.845 269.796L527.51 252.298V252.278C540.915 252.368 554.866 250.632 566.141 248.671C566.16 248.671 566.173 248.665 566.192 248.658L497.17 292.607C496.759 292.869 496.271 292.991 495.777 292.959L479.625 291.767C479.253 291.742 478.977 292.107 479.112 292.459L482.609 301.718C482.641 301.801 482.699 301.853 482.783 301.846C485.895 301.648 496.387 298.86 497.272 298.469L497.369 298.444L497.58 298.329C499.512 297.572 516.845 289.525 517.108 289.525C517.108 289.39 534.492 280.625 534.8 280.625C534.934 280.311 536.584 279.465 537.296 279.337C537.431 279.068 548.661 273.243 549.508 272.974C549.508 272.84 553.121 270.969 553.698 270.841C553.833 270.572 562.252 266.17 562.522 266.17C562.522 266.035 571.794 261.229 571.794 261.095C572.327 260.916 574.291 259.935 574.291 259.807C574.554 259.807 580.175 256.956 580.175 256.828C580.355 256.828 588.556 252.644 595.326 249.171L599.561 246.947L601.255 246.057L602.59 245.345C603.392 244.942 603.88 244.679 604.06 244.545L604.15 244.5L672.697 214.506C673.191 214.237 674.346 213.661 674.346 213.526C674.751 213.526 676.843 212.815 676.843 212.68C677.292 212.68 685.268 209.835 685.268 209.701C686.513 209.387 698.462 205.075 698.77 205.075C698.77 204.94 736.432 192.26 753.771 184.206C753.906 183.937 765.675 176.997 765.983 176.997C766.118 176.728 777.303 168.232 777.752 168.053C778.869 166.81 782.52 163.112 783.187 162.536C783.187 162.267 784.612 160.575 784.881 160.447C786.036 158.8 788.225 154.129 786.126 151.944C784.297 148.696 778.638 147.715 774.807 146.428L774.826 146.415Z" fill="white"/>
</svg>
